<?xml version="1.0" standalone="no"?>
<!DOCTYPE svg PUBLIC "-//W3C//DTD SVG 20010904//EN"
 "http://www.w3.org/TR/2001/REC-SVG-20010904/DTD/svg10.dtd">
<svg version="1.0" xmlns="http://www.w3.org/2000/svg"
 width="24.000000pt" height="24.000000pt" viewBox="0 0 24.000000 24.000000"
 preserveAspectRatio="xMidYMid meet">
<metadata>
Created by potrace 1.10, written by Peter Selinger 2001-2011
</metadata>
<g transform="translate(0.000000,24.000000) scale(0.100000,-0.100000)"
fill="#000000" stroke="none">
<path d="M44 207 c-3 -8 -4 -52 -2 -98 l3 -84 75 0 75 0 3 69 c3 63 1 71 -24
97 -23 24 -36 29 -76 29 -31 0 -50 -5 -54 -13z m116 -32 l23 -25 -26 0 c-22 0
-27 5 -27 25 0 14 1 25 3 25 2 0 14 -11 27 -25z m-39 -84 c-8 -5 -9 -11 -3
-15 5 -3 12 1 16 9 8 21 35 19 32 -2 -4 -25 -54 -29 -73 -6 -8 10 -12 13 -9 6
4 -6 2 -14 -4 -18 -5 -3 -10 3 -10 14 0 17 6 21 33 21 22 0 28 -3 18 -9z"/>
</g>
</svg>
