<svg width="256" height="256" viewBox="0 0 256 256" fill="none" xmlns="http://www.w3.org/2000/svg">
<path d="M71.6799 97.22L34.7399 128L71.6799 158.78C72.905 159.784 73.9192 161.021 74.664 162.418C75.4089 163.816 75.8696 165.348 76.0196 166.925C76.1697 168.501 76.0061 170.092 75.5382 171.606C75.0704 173.119 74.3076 174.525 73.2939 175.742C72.2801 176.959 71.0355 177.963 69.6317 178.697C68.2279 179.43 66.6928 179.879 65.1148 180.016C63.5368 180.154 61.9473 179.977 60.4378 179.497C58.9283 179.017 57.5288 178.243 56.3199 177.22L8.31989 137.22C6.968 136.094 5.8803 134.684 5.13386 133.091C4.38742 131.498 4.00049 129.76 4.00049 128C4.00049 126.241 4.38742 124.503 5.13386 122.909C5.8803 121.316 6.968 119.906 8.31989 118.78L56.3199 78.78C58.7686 76.7732 61.9112 75.8155 65.0629 76.1154C68.2147 76.4153 71.1202 77.9486 73.1465 80.3812C75.1728 82.8138 76.1556 85.9486 75.8809 89.1026C75.6062 92.2567 74.0962 95.1744 71.6799 97.22ZM247.68 118.78L199.68 78.78C198.471 77.7566 197.071 76.9826 195.562 76.5027C194.052 76.0228 192.463 75.8465 190.885 75.9839C189.307 76.1213 187.772 76.5698 186.368 77.3034C184.964 78.0371 183.72 79.0414 182.706 80.2584C181.692 81.4754 180.929 82.8811 180.462 84.3944C179.994 85.9076 179.83 87.4986 179.98 89.0754C180.13 90.6522 180.591 92.1837 181.336 93.5816C182.081 94.9794 183.095 96.216 184.32 97.22L221.26 128L184.32 158.78C183.095 159.784 182.081 161.021 181.336 162.418C180.591 163.816 180.13 165.348 179.98 166.925C179.83 168.501 179.994 170.092 180.462 171.606C180.929 173.119 181.692 174.525 182.706 175.742C183.72 176.959 184.964 177.963 186.368 178.697C187.772 179.43 189.307 179.879 190.885 180.016C192.463 180.154 194.052 179.977 195.562 179.497C197.071 179.017 198.471 178.243 199.68 177.22L247.68 137.22C249.032 136.094 250.119 134.684 250.866 133.091C251.612 131.498 251.999 129.76 251.999 128C251.999 126.241 251.612 124.503 250.866 122.909C250.119 121.316 249.032 119.906 247.68 118.78ZM164.1 28.72C162.619 28.1813 161.046 27.9397 159.471 28.009C157.896 28.0784 156.351 28.4572 154.923 29.124C153.494 29.7907 152.211 30.7323 151.147 31.895C150.083 33.0576 149.258 34.4186 148.72 35.9L84.7199 211.9C83.635 214.89 83.782 218.189 85.1283 221.071C86.4747 223.953 88.9103 226.183 91.8999 227.27C93.2124 227.755 94.6007 228.002 95.9999 228C98.4637 228 100.868 227.243 102.886 225.829C104.904 224.416 106.438 222.416 107.28 220.1L171.28 44.1C171.819 42.6187 172.06 41.0458 171.991 39.4711C171.922 37.8965 171.543 36.3509 170.876 34.9226C170.209 33.4944 169.268 32.2115 168.105 31.1473C166.942 30.083 165.581 29.2582 164.1 28.72Z" fill="black"/>
</svg>
